<svg id="SvgjsSvg1001" width="288" height="288" xmlns="http://www.w3.org/2000/svg" version="1.1" xmlns:xlink="http://www.w3.org/1999/xlink" xmlns:svgjs="http://svgjs.com/svgjs"><defs id="SvgjsDefs1002"></defs><g id="SvgjsG1008"><svg xmlns="http://www.w3.org/2000/svg" version="1.0" viewBox="0 0 346 267" width="288" height="288"><g transform="matrix(.1 0 0 -.1 0 267)" fill="#eae4e4" class="color000 svgShape"><path d="M1545 2314 c-16 -3 -59 -12 -95 -20 -243 -59 -375 -154 -584 -423-68 -88 -124 -151 -134 -151 -13 0 -14 -2 -4 -8 10 -7 10 -13 0 -34 -8 -13
-18 -23 -25 -21 -6 2 -34 -10 -63 -28 -28 -17 -72 -37 -98 -44 l-47 -13 41 -1
c24 -1 61 9 92 24 65 31 76 31 70 1 -5 -22 -3 -23 24 -14 61 21 105 -20 81
-75 l-10 -22 -12 23 c-21 40 -89 23 -176 -43 -77 -59 -114 -77 -146 -70 -33 8
-72 -2 -64 -16 8 -12 112 -12 120 1 3 6 12 10 20 10 7 0 44 18 82 40 95 54
126 60 161 28 53 -49 121 -88 174 -100 29 -6 71 -24 93 -38 82 -55 129 -73
119 -45 -8 21 23 19 34 -2 9 -16 12 -15 38 2 45 29 53 46 54 106 0 54 -2 57
-30 69 -24 10 -33 10 -45 0 -13 -11 -13 -15 0 -41 23 -43 18 -45 -15 -8 -34
38 -36 51 -15 69 25 21 38 86 24 128 -16 49 -49 90 -74 93 -17 1 -17 2 -3 6
43 11 117 -82 118 -148 0 -32 9 -42 25 -29 10 8 9 23 -1 68 -8 31 -14 62 -14
67 1 16 23 -26 40 -75 9 -25 23 -45 31 -45 8 0 12 7 10 15 -11 45 -13 110 -2
110 6 0 11 -10 11 -22 0 -27 35 -88 50 -88 13 0 13 5 -10 74 -23 68 -26 167
-7 238 7 26 15 49 18 52 3 3 5 -52 5 -124 -1 -91 3 -133 12 -141 6 -7 12 -20
12 -28 1 -41 75 -90 137 -91 12 0 25 -4 28 -10 3 -5 15 -10 25 -10 10 0 22 -5
26 -11 4 -8 -25 -9 -102 -6 -60 2 -86 2 -59 -2 42 -5 46 -7 25 -13 -14 -4 -42
-8 -63 -8 -48 0 -81 -31 -97 -91 -15 -55 -9 -68 82 -164 150 -161 128 -146
205 -144 37 1 108 -2 156 -6 l89 -8 -22 43 c-23 46 -83 116 -112 131 -12 6
-25 6 -38 -1 -13 -7 -43 -8 -79 -4 -54 6 -62 10 -85 43 l-26 36 30 3 c16 2 58
-7 93 -19 71 -26 196 -30 223 -8 37 31 39 89 3 89 -25 0 -24 8 6 32 21 16 25
28 25 68 0 44 -5 55 -53 112 -77 91 -104 144 -45 89 18 -16 36 -28 40 -25 4 3
9 26 9 52 l2 47 7 -50 c8 -56 13 -70 54 -138 26 -44 28 -54 22 -110 -3 -34 -7
-83 -9 -109 -3 -47 -27 -88 -52 -88 -7 0 -18 -6 -24 -14 -9 -11 3 -20 61 -46
40 -17 114 -44 165 -58 134 -38 117 -58 -25 -28 -35 7 -65 9 -68 4 -3 -5 13
-26 35 -46 23 -21 41 -42 41 -48 0 -6 -23 -16 -50 -22 -45 -10 -59 -9 -111 8
l-60 21 -37 -31 c-20 -16 -44 -30 -54 -30 -23 0 -34 -23 -42 -89 l-7 -53 38 6
c21 4 57 9 81 12 40 6 42 8 42 38 0 45 6 48 41 15 32 -30 53 -36 64 -19 3 6
19 10 35 10 16 0 32 -4 35 -10 3 -5 13 -10 22 -10 8 0 42 -13 75 -30 67 -34
108 -38 131 -12 8 9 27 43 41 75 14 32 34 70 46 84 16 21 21 23 26 9 3 -9 10
-14 14 -11 5 3 1 20 -8 38 -22 42 -29 205 -12 248 20 47 31 19 18 -43 -9 -45
-9 -71 1 -125 8 -37 16 -72 20 -78 18 -30 27 -72 18 -87 -21 -32 88 -139 221
-217 109 -63 189 -127 206 -163 8 -18 25 -63 37 -100 24 -73 22 -81 -33 -105
-23 -10 -59 -55 -94 -118 -8 -14 -21 -20 -48 -20 -137 2 -186 6 -186 15 0 6
15 10 34 10 29 0 34 4 39 27 5 29 -11 63 -30 63 -7 0 -12 6 -11 12 2 8 -15 15
-47 20 -162 22 -201 40 -254 116 -43 62 -101 185 -96 203 4 12 -1 22 -15 29
-11 6 -20 17 -20 25 0 9 -16 16 -44 20 -25 4 -47 14 -50 22 -4 9 -13 12 -26 8
-11 -3 -47 1 -81 9 -69 18 -139 21 -139 6 0 -5 19 -10 42 -10 51 0 40 -12 -27
-29 -71 -17 -81 -29 -67 -83 17 -64 24 -148 13 -162 -5 -6 -11 -22 -14 -36 -2
-14 -5 10 -6 52 -2 107 -29 165 -113 243 -95 89 -110 127 -62 164 32 25 85 97
77 105 -4 3 -19 6 -34 6 -42 0 -77 20 -100 57 -11 18 -26 33 -33 33 -7 0 -32
-20 -57 -45 -24 -24 -49 -45 -55 -45 -18 0 -84 -91 -84 -115 0 -12 -9 -60 -21
-106 -21 -83 -22 -178 -4 -304 l6 -40 -15 30 c-36 75 -45 184 -24 287 7 31 10
59 7 62 -2 2 -17 6 -34 8 -29 3 -30 2 -31 -43 -3 -101 -13 -132 -54 -173 -22
-22 -40 -45 -40 -51 0 -18 -79 -105 -95 -105 -8 0 2 15 20 34 19 18 35 38 35
45 0 6 3 11 8 11 4 0 13 15 21 33 8 17 27 51 42 73 27 40 28 47 30 173 1 73 6
134 11 137 4 3 1 16 -8 29 -10 15 -12 25 -5 30 7 4 6 15 -3 34 -10 19 -13 45
-9 82 4 46 2 58 -17 82 -25 31 -112 77 -147 77 -24 0 -92 34 -106 54 -5 6 -6
-3 -3 -21 3 -18 1 -33 -4 -33 -5 0 3 -18 17 -40 15 -22 34 -40 43 -40 27 0 58
-29 70 -66 10 -29 10 -38 0 -44 -9 -5 -11 -22 -7 -49 9 -67 -38 -183 -82 -201
-82 -33 -126 -72 -166 -145 l-17 -30 6 33 c6 36 57 116 83 130 10 6 12 12 5
16 -22 13 -91 -35 -105 -74 -3 -10 -6 -6 -6 8 -1 13 8 37 19 52 14 19 17 31
10 35 -10 6 -45 -16 -62 -40 -5 -6 -8 -3 -8 7 0 9 4 20 10 23 5 3 13 20 18 38
6 23 19 38 47 52 44 23 65 66 45 90 -9 10 -17 12 -24 6 -14 -12 -82 -18 -92
-8 -3 3 -4 22 0 40 9 46 52 89 85 85 28 -3 27 -6 20 120 -1 17 -7 22 -31 22
-16 0 -39 -5 -51 -12 -12 -7 -29 -12 -37 -13 -8 0 -14 -6 -13 -12 4 -17 -13
-16 -72 1 -48 15 -110 11 -99 -5 3 -5 -6 -9 -20 -9 -14 0 -28 -5 -31 -10 -3
-5 -14 -10 -23 -10 -9 -1 -28 -14 -42 -30 -23 -29 -50 -40 -50 -20 0 12 -111
2 -127 -12 -24 -20 -13 -64 30 -112 17 -20 17 -21 -3 -28 -23 -9 -23 -8 -10
-79 5 -30 12 -71 15 -91 3 -22 11 -37 18 -35 9 1 13 -34 15 -133 3 -155 6
-172 27 -144 14 18 14 18 15 -5 0 -29 20 -103 32 -115 4 -6 8 -16 8 -23 0 -23
32 -65 40 -53 8 13 40 2 40 -14 0 -6 24 -37 52 -70 46 -52 53 -56 64 -41 12
16 16 15 56 -12 24 -17 57 -36 75 -43 43 -19 32 -30 -30 -30 -68 -1 -314 -27
-352 -38 -34 -9 -28 -15 35 -30 268 -65 2340 -75 2930 -14 52 6 109 16 125 22
l30 12 -25 10 c-14 5 -101 16 -193 25 -120 12 -170 20 -174 30 -3 7 11 47 31
89 20 42 36 86 36 99 0 13 -13 52 -30 87 -26 54 -30 75 -30 146 0 91 -1 93
-81 142 -55 33 -79 76 -79 142 0 35 -4 48 -14 48 -8 0 -18 -4 -21 -10 -6 -9
-45 -15 -45 -6 0 2 18 22 39 45 40 42 81 117 81 148 1 10 7 32 14 48 l13 30 8
-28 c4 -16 2 -40 -5 -58 -23 -55 21 -104 103 -115 60 -9 107 15 138 69 20 36
24 55 23 127 0 77 -3 91 -36 155 -20 39 -55 95 -78 124 -98 124 -108 154 -65
196 37 38 121 33 160 -9 55 -60 104 -127 109 -151 12 -56 96 -73 148 -30 20
17 24 25 14 25 -9 0 -33 16 -55 35 -29 26 -47 35 -75 35 -32 0 -41 6 -82 60
-62 78 -77 87 -147 85 -68 -3 -98 -25 -129 -93 -18 -40 -18 -46 -4 -76 8 -18
39 -63 69 -100 93 -117 133 -213 128 -309 -2 -29 -38 -57 -74 -57 -25 0 -41 8
-63 33 -31 33 -33 37 -83 151 -38 85 -102 181 -150 224 -50 45 -99 69 -218
108 -56 19 -117 43 -135 54 -45 27 -147 130 -211 211 -28 38 -55 68 -60 69 -9
0 13 -40 33 -60 9 -8 27 -31 40 -50 29 -42 29 -42 103 -118 32 -33 77 -67 100
-77 23 -9 50 -21 59 -26 10 -5 29 -9 43 -9 14 0 25 -4 25 -10 0 -5 14 -10 30
-10 38 0 39 -18 3 -26 -68 -14 -114 -38 -147 -76 -44 -49 -47 -32 -6 29 17 24
30 47 30 51 0 4 -22 20 -48 35 -26 16 -66 45 -89 65 -38 35 -143 164 -143 177
0 3 -9 15 -20 27 -11 12 -20 28 -20 35 0 7 -4 13 -10 13 -5 0 -10 7 -10 15 0
8 -3 15 -7 15 -5 0 -13 11 -20 25 -14 31 -6 32 18 3 11 -11 22 -18 25 -15 4 3
-1 13 -10 22 -8 9 -20 24 -26 33 -8 15 -11 15 -20 2 -9 -12 -10 -10 -5 8 4 13
1 28 -7 36 -7 7 -44 57 -83 109 -90 124 -117 138 -265 142 -58 2 -118 1 -135
-1z m105 -39 c-127 -15 -155 -22 -218 -54 -51 -26 -75 -62 -90 -134 -6 -28
-18 -81 -26 -117 l-15 -65 4 117 c3 64 8 123 11 132 9 23 -19 20 -41 -4 -16
-18 -17 -36 -13 -192 2 -95 2 -164 0 -153 -2 11 -8 25 -13 30 -12 16 -29 132
-29 207 0 37 -5 70 -10 73 -11 7 -123 -66 -185 -120 -65 -57 -54 -28 15 39
103 100 237 183 356 220 99 31 121 34 244 34 l125 0 -115 -13z m227 -517 c-3
-8 -6 -5 -6 6 -1 11 2 17 5 13 3 -3 4 -12 1 -19z m-936 -308 c6 0 15 -13 20
-30 7 -19 18 -30 30 -30 10 0 19 -4 19 -10 0 -16 -25 -12 -69 12 -31 16 -41
28 -41 46 0 18 4 23 16 18 9 -3 20 -6 25 -6z m-400 -180 c-27 -23 -51 -26 -51
-7 0 21 11 27 44 27 l31 -1 -24 -19z m-333 -71 c-21 -12 -24 -65 -5 -72 7 -3
5 -6 -5 -6 -10 -1 -25 13 -33 30 -20 37 -7 59 34 59 22 -1 24 -2 9 -11z m1999
-115 c-3 -3 -12 -4 -19 -1 -8 3 -5 6 6 6 11 1 17 -2 13 -5z m-222 -654 c3 -10
34 -48 69 -82 35 -35 71 -78 80 -96 16 -30 16 -32 -1 -32 -103 -3 -447 0 -450
3 -2 3 11 17 29 32 18 15 65 57 103 93 108 100 157 124 170 82z m845 -176 c0
-21 -18 -54 -30 -54 -14 0 -12 26 2 50 15 24 28 26 28 4z" fill="#eae4e4" class="color000 svgShape"></path><path d="M1340 1474c0-8 5-12 10-9 6 3 10 10 10 16 0 5-4 9-10 9-5 0-10-7-10-16zM1322 1420c0-19 2-27 5-17 2 9 2 25 0 35-3 9-5 1-5-18zM920 1055c0-8-4-15-9-15-5 0-11-8-15-17-3-10-9-24-12-30-3-7-1-13 5-13 6 0 11 7 11 15 0 8 5 15 10 15 6 0 10 7 10 15 0 8 5 15 10 15 6 0 10 7 10 15 0 8-4 15-10 15-5 0-10-7-10-15zM866 961c-4-7-5-15-2-18 9-9 19 4 14 18-4 11-6 11-12 0zM2400 946c0-9 5-16 10-16 6 0 10 4 10 9 0 6-4 13-10 16-5 3-10-1-10-9zM1720 770c0-5 9-10 19-10 11 0 23 5 26 10 4 6-5 10-19 10-14 0-26-4-26-10z" fill="#eae4e4" class="color000 svgShape"></path></g></svg></g></svg>